# xmcd CD database file
#
# Track frame offsets:
#	150
#	5060
#	23841
#	43635
#	60554
#	78961
#	98738
#	104356
#	124176
#	144172
#	168255
#	185781
#	203663
#	224159
#
# Disc length: 3204 seconds
#
# Revision: 8
# Processed by: cddbd v1.5.2PL0 Copyright (c) Steve Scherf et al.
# Submitted via: jetAudio 7
#
DISCID=c00c820e
DTITLE=박화요비 - My All
DYEAR=2000
DGENRE=R&B
TTITLE0=Intro[Dream]
TTITLE1=Lie[Radio Ver.]
TTITLE2=그런일은 (Album Version)
TTITLE3=Crazy Love
TTITLE4=바램
TTITLE5=가시
TTITLE6=Interlude[Gray]
TTITLE7=Promise
TTITLE8=Always
TTITLE9=후
TTITLE10=여기까지만
TTITLE11=첫사랑
TTITLE12=Lie[Original Version]
TTITLE13=전설속의 사랑
EXTD=
EXTT0=
EXTT1=
EXTT2=
EXTT3=
EXTT4=
EXTT5=
EXTT6=
EXTT7=
EXTT8=
EXTT9=
EXTT10=
EXTT11=
EXTT12=
EXTT13=
PLAYORDER=
